<svg xmlns="http://www.w3.org/2000/svg" width="612" height="612" viewBox="0 0 612 612">
  <metadata><?xpacket begin="﻿" id="W5M0MpCehiHzreSzNTczkc9d"?>
<x:xmpmeta xmlns:x="adobe:ns:meta/" x:xmptk="Adobe XMP Core 5.6-c142 79.160924, 2017/07/13-01:06:39        ">
   <rdf:RDF xmlns:rdf="http://www.w3.org/1999/02/22-rdf-syntax-ns#">
      <rdf:Description rdf:about=""/>
   </rdf:RDF>
</x:xmpmeta>
                                                                                                    
                                                                                                    
                                                                                                    
                                                                                                    
                                                                                                    
                                                                                                    
                                                                                                    
                                                                                                    
                                                                                                    
                                                                                                    
                                                                                                    
                                                                                                    
                                                                                                    
                                                                                                    
                                                                                                    
                                                                                                    
                                                                                                    
                                                                                                    
                                                                                                    
                                                                                                    
                           
<?xpacket end="w"?></metadata>
<defs>
    <style>
      .cls-1 {
        fill-rule: evenodd;
      }
    </style>
  </defs>
  <path id="Forma_1" data-name="Forma 1" class="cls-1" d="M306,612a299.206,299.206,0,0,1-81.4-11.016,310.332,310.332,0,0,1-73.134-30.906A306.411,306.411,0,0,1,41.922,460.53,310.318,310.318,0,0,1,11.016,387.4a306.222,306.222,0,0,1,0-162.793A310.29,310.29,0,0,1,41.922,151.47,306.416,306.416,0,0,1,151.47,41.922,310.29,310.29,0,0,1,224.6,11.016,299.2,299.2,0,0,1,306,0q63.036,0,119.034,24.174t97.308,65.484q41.31,41.31,65.484,97.308T612,306a299.219,299.219,0,0,1-11.016,81.4,310.378,310.378,0,0,1-30.906,73.133A306.405,306.405,0,0,1,460.53,570.078,310.3,310.3,0,0,1,387.4,600.984,299.193,299.193,0,0,1,306,612ZM453.492,179.928H163.4a10.6,10.6,0,0,0-7.344,2.754,9.766,9.766,0,0,0-3.06,7.65v32.436q0,2.448,1.836,2.448l152.388,86.9,1.225,0.612a2.5,2.5,0,0,0,1.836-.612l147.492-86.9a4.692,4.692,0,0,1,1.836-.612,4.7,4.7,0,0,0,1.836-.612,2.164,2.164,0,0,0,2.449-2.448V190.332a9.767,9.767,0,0,0-3.062-7.65A10.6,10.6,0,0,0,453.492,179.928ZM245.412,310.284a2.5,2.5,0,0,0,.612-1.836q0-1.837-1.224-1.836l-87.516-50.184a3.943,3.943,0,0,0-3.06,0q-1.224,0-1.224,1.836v131.58a2.4,2.4,0,0,0,1.836,2.448h1.224q1.224,0,1.224-.612ZM351.9,320.076q-0.612-1.838-3.061-.612l-33.66,19.584q-6.12,3.672-12.852,0l-29.376-16.523q-1.836-1.224-3.06,0l-112,104.04a3.541,3.541,0,0,0-.612,2.447,3.42,3.42,0,0,0,1.224,1.836,20.05,20.05,0,0,0,4.9,1.225H450.431a3.52,3.52,0,0,0,2.448-1.225q0-2.448-.612-3.06Zm110.16-66.1h-2.447l-83.232,49.572q-1.222,0-1.224,1.836-0.612.612,0.611,1.835L459,397.188a3.427,3.427,0,0,0,1.836,1.225h1.224q1.838-1.838,1.838-2.448V256.429Q463.9,255.2,462.06,253.98Z"/>
</svg>
